<mxfile host="app.diagrams.net" agent="Mozilla/5.0 (Windows NT 10.0; Win64; x64) AppleWebKit/537.36 (KHTML, like Gecko) Chrome/131.0.0.0 Safari/537.36" version="26.0.6">
  <diagram name="第 1 页" id="eqwS2rmoRDuyHipNQvQM">
    <mxGraphModel dx="1475" dy="876" grid="1" gridSize="10" guides="1" tooltips="1" connect="1" arrows="1" fold="1" page="1" pageScale="1" pageWidth="1169" pageHeight="827" math="0" shadow="0">
      <root>
        <mxCell id="0" />
        <mxCell id="1" parent="0" />
        <mxCell id="97sA7i45QoaFlvlGvcoy-3" style="edgeStyle=orthogonalEdgeStyle;rounded=0;orthogonalLoop=1;jettySize=auto;html=1;exitX=0.5;exitY=0.5;exitDx=0;exitDy=0;exitPerimeter=0;entryX=0;entryY=0.5;entryDx=0;entryDy=0;" parent="1" source="97sA7i45QoaFlvlGvcoy-1" target="97sA7i45QoaFlvlGvcoy-2" edge="1">
          <mxGeometry relative="1" as="geometry" />
        </mxCell>
        <mxCell id="97sA7i45QoaFlvlGvcoy-1" value="Actor" style="shape=umlActor;verticalLabelPosition=bottom;verticalAlign=top;html=1;outlineConnect=0;" parent="1" vertex="1">
          <mxGeometry x="30" y="349" width="30" height="60" as="geometry" />
        </mxCell>
        <mxCell id="97sA7i45QoaFlvlGvcoy-5" style="edgeStyle=orthogonalEdgeStyle;rounded=0;orthogonalLoop=1;jettySize=auto;html=1;exitX=1;exitY=0.5;exitDx=0;exitDy=0;" parent="1" source="97sA7i45QoaFlvlGvcoy-2" edge="1">
          <mxGeometry relative="1" as="geometry">
            <mxPoint x="280" y="379" as="targetPoint" />
          </mxGeometry>
        </mxCell>
        <mxCell id="97sA7i45QoaFlvlGvcoy-2" value="开始节点" style="rounded=1;whiteSpace=wrap;html=1;" parent="1" vertex="1">
          <mxGeometry x="84" y="349" width="120" height="60" as="geometry" />
        </mxCell>
        <mxCell id="97sA7i45QoaFlvlGvcoy-10" value="type:引导词/提示词&lt;div&gt;role:主动/伴听&lt;/div&gt;&lt;div&gt;event:离开展区/展厅&lt;/div&gt;&lt;div&gt;cost:时间&lt;/div&gt;&lt;div&gt;condition:条件信息&lt;/div&gt;" style="text;html=1;align=left;verticalAlign=middle;resizable=0;points=[];autosize=1;strokeColor=none;fillColor=none;" parent="1" vertex="1">
          <mxGeometry x="5" y="119" width="130" height="90" as="geometry" />
        </mxCell>
        <mxCell id="0BQTkddd_yExmxfpGyZA-33" style="edgeStyle=orthogonalEdgeStyle;rounded=0;orthogonalLoop=1;jettySize=auto;html=1;exitX=0.5;exitY=0;exitDx=0;exitDy=0;entryX=0;entryY=0.5;entryDx=0;entryDy=0;" parent="1" source="97sA7i45QoaFlvlGvcoy-15" target="0BQTkddd_yExmxfpGyZA-37" edge="1">
          <mxGeometry relative="1" as="geometry">
            <mxPoint x="382.99999999999955" y="239" as="targetPoint" />
          </mxGeometry>
        </mxCell>
        <mxCell id="0BQTkddd_yExmxfpGyZA-34" value="引导词" style="edgeLabel;html=1;align=center;verticalAlign=middle;resizable=0;points=[];" parent="0BQTkddd_yExmxfpGyZA-33" vertex="1" connectable="0">
          <mxGeometry x="-0.8039" y="1" relative="1" as="geometry">
            <mxPoint as="offset" />
          </mxGeometry>
        </mxCell>
        <mxCell id="0BQTkddd_yExmxfpGyZA-35" style="edgeStyle=orthogonalEdgeStyle;rounded=0;orthogonalLoop=1;jettySize=auto;html=1;exitX=0.5;exitY=1;exitDx=0;exitDy=0;entryX=0;entryY=0.5;entryDx=0;entryDy=0;" parent="1" source="97sA7i45QoaFlvlGvcoy-15" target="24F_cnndnKzgg-yqGema-22" edge="1">
          <mxGeometry relative="1" as="geometry">
            <mxPoint x="303" y="529" as="targetPoint" />
          </mxGeometry>
        </mxCell>
        <mxCell id="0BQTkddd_yExmxfpGyZA-36" value="提示词" style="edgeLabel;html=1;align=center;verticalAlign=middle;resizable=0;points=[];" parent="0BQTkddd_yExmxfpGyZA-35" vertex="1" connectable="0">
          <mxGeometry x="-0.7784" y="-2" relative="1" as="geometry">
            <mxPoint as="offset" />
          </mxGeometry>
        </mxCell>
        <mxCell id="97sA7i45QoaFlvlGvcoy-15" value="分支节点" style="rhombus;whiteSpace=wrap;html=1;" parent="1" vertex="1">
          <mxGeometry x="223" y="349" width="120" height="60" as="geometry" />
        </mxCell>
        <mxCell id="qYZHV7-NMalifiw_TgKO-1" value="离开展区流程图" style="text;html=1;align=center;verticalAlign=middle;whiteSpace=wrap;rounded=0;" parent="1" vertex="1">
          <mxGeometry x="452" width="265" height="30" as="geometry" />
        </mxCell>
        <mxCell id="0BQTkddd_yExmxfpGyZA-4" style="edgeStyle=orthogonalEdgeStyle;rounded=0;orthogonalLoop=1;jettySize=auto;html=1;exitX=0.5;exitY=0;exitDx=0;exitDy=0;entryX=0;entryY=0.5;entryDx=0;entryDy=0;" parent="1" source="0BQTkddd_yExmxfpGyZA-1" target="0BQTkddd_yExmxfpGyZA-2" edge="1">
          <mxGeometry relative="1" as="geometry" />
        </mxCell>
        <mxCell id="0BQTkddd_yExmxfpGyZA-6" value="商务/技术" style="edgeLabel;html=1;align=center;verticalAlign=middle;resizable=0;points=[];" parent="0BQTkddd_yExmxfpGyZA-4" vertex="1" connectable="0">
          <mxGeometry x="-0.7336" relative="1" as="geometry">
            <mxPoint as="offset" />
          </mxGeometry>
        </mxCell>
        <mxCell id="0BQTkddd_yExmxfpGyZA-5" style="edgeStyle=orthogonalEdgeStyle;rounded=0;orthogonalLoop=1;jettySize=auto;html=1;exitX=1;exitY=0.5;exitDx=0;exitDy=0;entryX=0;entryY=0.5;entryDx=0;entryDy=0;" parent="1" source="0BQTkddd_yExmxfpGyZA-1" target="0BQTkddd_yExmxfpGyZA-3" edge="1">
          <mxGeometry relative="1" as="geometry" />
        </mxCell>
        <mxCell id="0BQTkddd_yExmxfpGyZA-9" value="儿童" style="edgeLabel;html=1;align=center;verticalAlign=middle;resizable=0;points=[];" parent="0BQTkddd_yExmxfpGyZA-5" vertex="1" connectable="0">
          <mxGeometry x="-0.7391" relative="1" as="geometry">
            <mxPoint x="9" as="offset" />
          </mxGeometry>
        </mxCell>
        <mxCell id="0BQTkddd_yExmxfpGyZA-1" value="分支节点" style="rhombus;whiteSpace=wrap;html=1;" parent="1" vertex="1">
          <mxGeometry x="712" y="129" width="120" height="60" as="geometry" />
        </mxCell>
        <mxCell id="D78f5MYqbMIF7nLeF2cV-3" style="edgeStyle=orthogonalEdgeStyle;rounded=0;orthogonalLoop=1;jettySize=auto;html=1;exitX=1;exitY=0.5;exitDx=0;exitDy=0;" parent="1" source="0BQTkddd_yExmxfpGyZA-2" target="D78f5MYqbMIF7nLeF2cV-2" edge="1">
          <mxGeometry relative="1" as="geometry" />
        </mxCell>
        <mxCell id="0BQTkddd_yExmxfpGyZA-2" value="消息节点2" style="rounded=0;whiteSpace=wrap;html=1;" parent="1" vertex="1">
          <mxGeometry x="882" y="29" width="120" height="60" as="geometry" />
        </mxCell>
        <mxCell id="D78f5MYqbMIF7nLeF2cV-4" style="edgeStyle=orthogonalEdgeStyle;rounded=0;orthogonalLoop=1;jettySize=auto;html=1;exitX=1;exitY=0.5;exitDx=0;exitDy=0;" parent="1" source="0BQTkddd_yExmxfpGyZA-3" edge="1">
          <mxGeometry relative="1" as="geometry">
            <mxPoint x="1100" y="350" as="targetPoint" />
          </mxGeometry>
        </mxCell>
        <mxCell id="0BQTkddd_yExmxfpGyZA-3" value="消息节点1" style="rounded=0;whiteSpace=wrap;html=1;" parent="1" vertex="1">
          <mxGeometry x="882" y="129" width="120" height="60" as="geometry" />
        </mxCell>
        <mxCell id="0BQTkddd_yExmxfpGyZA-7" value="&lt;font style=&quot;font-size: 8px;&quot;&gt;离开展区引导&lt;/font&gt;" style="text;html=1;align=left;verticalAlign=middle;whiteSpace=wrap;rounded=0;" parent="1" vertex="1">
          <mxGeometry x="882" y="29" width="70" height="11" as="geometry" />
        </mxCell>
        <mxCell id="0BQTkddd_yExmxfpGyZA-8" value="&lt;font style=&quot;font-size: 8px;&quot;&gt;离开展区引导&lt;/font&gt;" style="text;html=1;align=left;verticalAlign=middle;whiteSpace=wrap;rounded=0;" parent="1" vertex="1">
          <mxGeometry x="882" y="129" width="70" height="11" as="geometry" />
        </mxCell>
        <mxCell id="0BQTkddd_yExmxfpGyZA-10" style="edgeStyle=orthogonalEdgeStyle;rounded=0;orthogonalLoop=1;jettySize=auto;html=1;exitX=0.5;exitY=0;exitDx=0;exitDy=0;entryX=0;entryY=0.5;entryDx=0;entryDy=0;" parent="1" source="0BQTkddd_yExmxfpGyZA-14" target="0BQTkddd_yExmxfpGyZA-15" edge="1">
          <mxGeometry relative="1" as="geometry" />
        </mxCell>
        <mxCell id="0BQTkddd_yExmxfpGyZA-11" value="商务/技术" style="edgeLabel;html=1;align=center;verticalAlign=middle;resizable=0;points=[];" parent="0BQTkddd_yExmxfpGyZA-10" vertex="1" connectable="0">
          <mxGeometry x="-0.7336" relative="1" as="geometry">
            <mxPoint as="offset" />
          </mxGeometry>
        </mxCell>
        <mxCell id="0BQTkddd_yExmxfpGyZA-12" style="edgeStyle=orthogonalEdgeStyle;rounded=0;orthogonalLoop=1;jettySize=auto;html=1;exitX=1;exitY=0.5;exitDx=0;exitDy=0;entryX=0;entryY=0.5;entryDx=0;entryDy=0;" parent="1" source="0BQTkddd_yExmxfpGyZA-14" target="0BQTkddd_yExmxfpGyZA-16" edge="1">
          <mxGeometry relative="1" as="geometry" />
        </mxCell>
        <mxCell id="0BQTkddd_yExmxfpGyZA-13" value="儿童" style="edgeLabel;html=1;align=center;verticalAlign=middle;resizable=0;points=[];" parent="0BQTkddd_yExmxfpGyZA-12" vertex="1" connectable="0">
          <mxGeometry x="-0.7391" relative="1" as="geometry">
            <mxPoint x="9" as="offset" />
          </mxGeometry>
        </mxCell>
        <mxCell id="0BQTkddd_yExmxfpGyZA-14" value="分支节点" style="rhombus;whiteSpace=wrap;html=1;" parent="1" vertex="1">
          <mxGeometry x="432" y="289" width="120" height="60" as="geometry" />
        </mxCell>
        <mxCell id="D78f5MYqbMIF7nLeF2cV-5" style="edgeStyle=orthogonalEdgeStyle;rounded=0;orthogonalLoop=1;jettySize=auto;html=1;exitX=1;exitY=0.5;exitDx=0;exitDy=0;entryX=0.5;entryY=0;entryDx=0;entryDy=0;" parent="1" source="0BQTkddd_yExmxfpGyZA-15" target="D78f5MYqbMIF7nLeF2cV-2" edge="1">
          <mxGeometry relative="1" as="geometry" />
        </mxCell>
        <mxCell id="0BQTkddd_yExmxfpGyZA-15" value="消息节点4" style="rounded=0;whiteSpace=wrap;html=1;" parent="1" vertex="1">
          <mxGeometry x="552" y="200" width="120" height="60" as="geometry" />
        </mxCell>
        <mxCell id="D78f5MYqbMIF7nLeF2cV-6" style="edgeStyle=orthogonalEdgeStyle;rounded=0;orthogonalLoop=1;jettySize=auto;html=1;exitX=1;exitY=0.5;exitDx=0;exitDy=0;" parent="1" source="0BQTkddd_yExmxfpGyZA-16" edge="1">
          <mxGeometry relative="1" as="geometry">
            <mxPoint x="1100" y="350" as="targetPoint" />
          </mxGeometry>
        </mxCell>
        <mxCell id="0BQTkddd_yExmxfpGyZA-16" value="消息节点3" style="rounded=0;whiteSpace=wrap;html=1;" parent="1" vertex="1">
          <mxGeometry x="629" y="289" width="120" height="60" as="geometry" />
        </mxCell>
        <mxCell id="0BQTkddd_yExmxfpGyZA-17" value="&lt;font style=&quot;font-size: 8px;&quot;&gt;离开展厅引导&lt;/font&gt;" style="text;html=1;align=left;verticalAlign=middle;whiteSpace=wrap;rounded=0;" parent="1" vertex="1">
          <mxGeometry x="552" y="200" width="70" height="11" as="geometry" />
        </mxCell>
        <mxCell id="0BQTkddd_yExmxfpGyZA-18" value="&lt;font style=&quot;font-size: 8px;&quot;&gt;离开展厅引导&lt;/font&gt;" style="text;html=1;align=left;verticalAlign=middle;whiteSpace=wrap;rounded=0;" parent="1" vertex="1">
          <mxGeometry x="629" y="289" width="70" height="11" as="geometry" />
        </mxCell>
        <mxCell id="0BQTkddd_yExmxfpGyZA-38" style="edgeStyle=orthogonalEdgeStyle;rounded=0;orthogonalLoop=1;jettySize=auto;html=1;exitX=0.5;exitY=1;exitDx=0;exitDy=0;entryX=0;entryY=0.5;entryDx=0;entryDy=0;" parent="1" source="0BQTkddd_yExmxfpGyZA-37" target="0BQTkddd_yExmxfpGyZA-14" edge="1">
          <mxGeometry relative="1" as="geometry" />
        </mxCell>
        <mxCell id="0BQTkddd_yExmxfpGyZA-39" value="离开展厅引导" style="edgeLabel;html=1;align=center;verticalAlign=middle;resizable=0;points=[];" parent="0BQTkddd_yExmxfpGyZA-38" vertex="1" connectable="0">
          <mxGeometry x="-0.7637" relative="1" as="geometry">
            <mxPoint as="offset" />
          </mxGeometry>
        </mxCell>
        <mxCell id="0BQTkddd_yExmxfpGyZA-42" style="edgeStyle=orthogonalEdgeStyle;rounded=0;orthogonalLoop=1;jettySize=auto;html=1;exitX=1;exitY=0.5;exitDx=0;exitDy=0;entryX=0;entryY=0.5;entryDx=0;entryDy=0;" parent="1" source="0BQTkddd_yExmxfpGyZA-37" target="0BQTkddd_yExmxfpGyZA-1" edge="1">
          <mxGeometry relative="1" as="geometry" />
        </mxCell>
        <mxCell id="0BQTkddd_yExmxfpGyZA-43" value="离开展区引导" style="edgeLabel;html=1;align=center;verticalAlign=middle;resizable=0;points=[];" parent="0BQTkddd_yExmxfpGyZA-42" vertex="1" connectable="0">
          <mxGeometry x="-0.925" relative="1" as="geometry">
            <mxPoint x="49" as="offset" />
          </mxGeometry>
        </mxCell>
        <mxCell id="0BQTkddd_yExmxfpGyZA-37" value="分支节点" style="rhombus;whiteSpace=wrap;html=1;" parent="1" vertex="1">
          <mxGeometry x="303" y="129" width="120" height="60" as="geometry" />
        </mxCell>
        <mxCell id="D78f5MYqbMIF7nLeF2cV-2" value="结束节点" style="rounded=1;whiteSpace=wrap;html=1;" parent="1" vertex="1">
          <mxGeometry x="1040" y="349" width="120" height="60" as="geometry" />
        </mxCell>
        <mxCell id="24F_cnndnKzgg-yqGema-1" style="edgeStyle=orthogonalEdgeStyle;rounded=0;orthogonalLoop=1;jettySize=auto;html=1;entryX=0;entryY=0.5;entryDx=0;entryDy=0;" edge="1" parent="1" source="D78f5MYqbMIF7nLeF2cV-15" target="24F_cnndnKzgg-yqGema-8">
          <mxGeometry relative="1" as="geometry">
            <mxPoint x="680" y="396" as="targetPoint" />
            <mxPoint x="480" y="400" as="sourcePoint" />
          </mxGeometry>
        </mxCell>
        <mxCell id="24F_cnndnKzgg-yqGema-20" value="主听离开5s" style="edgeLabel;html=1;align=center;verticalAlign=middle;resizable=0;points=[];" vertex="1" connectable="0" parent="24F_cnndnKzgg-yqGema-1">
          <mxGeometry x="-0.4636" y="-1" relative="1" as="geometry">
            <mxPoint x="11" as="offset" />
          </mxGeometry>
        </mxCell>
        <mxCell id="24F_cnndnKzgg-yqGema-17" style="edgeStyle=orthogonalEdgeStyle;rounded=0;orthogonalLoop=1;jettySize=auto;html=1;exitX=0.5;exitY=1;exitDx=0;exitDy=0;entryX=0;entryY=0.5;entryDx=0;entryDy=0;" edge="1" parent="1" source="D78f5MYqbMIF7nLeF2cV-15" target="24F_cnndnKzgg-yqGema-25">
          <mxGeometry relative="1" as="geometry">
            <mxPoint x="560" y="550" as="targetPoint" />
          </mxGeometry>
        </mxCell>
        <mxCell id="24F_cnndnKzgg-yqGema-19" value="主听离开" style="edgeLabel;html=1;align=center;verticalAlign=middle;resizable=0;points=[];" vertex="1" connectable="0" parent="24F_cnndnKzgg-yqGema-17">
          <mxGeometry x="-0.8404" relative="1" as="geometry">
            <mxPoint as="offset" />
          </mxGeometry>
        </mxCell>
        <mxCell id="D78f5MYqbMIF7nLeF2cV-15" value="分支节点" style="rhombus;whiteSpace=wrap;html=1;" parent="1" vertex="1">
          <mxGeometry x="390" y="400" width="120" height="60" as="geometry" />
        </mxCell>
        <mxCell id="24F_cnndnKzgg-yqGema-4" style="edgeStyle=orthogonalEdgeStyle;rounded=0;orthogonalLoop=1;jettySize=auto;html=1;entryX=0;entryY=0.5;entryDx=0;entryDy=0;exitX=0.5;exitY=1;exitDx=0;exitDy=0;" edge="1" parent="1" source="24F_cnndnKzgg-yqGema-8" target="24F_cnndnKzgg-yqGema-9">
          <mxGeometry relative="1" as="geometry" />
        </mxCell>
        <mxCell id="24F_cnndnKzgg-yqGema-5" value="商务/技术" style="edgeLabel;html=1;align=center;verticalAlign=middle;resizable=0;points=[];" vertex="1" connectable="0" parent="24F_cnndnKzgg-yqGema-4">
          <mxGeometry x="-0.7336" relative="1" as="geometry">
            <mxPoint as="offset" />
          </mxGeometry>
        </mxCell>
        <mxCell id="24F_cnndnKzgg-yqGema-6" style="edgeStyle=orthogonalEdgeStyle;rounded=0;orthogonalLoop=1;jettySize=auto;html=1;exitX=1;exitY=0.5;exitDx=0;exitDy=0;entryX=0;entryY=0.5;entryDx=0;entryDy=0;" edge="1" parent="1" source="24F_cnndnKzgg-yqGema-8" target="24F_cnndnKzgg-yqGema-10">
          <mxGeometry relative="1" as="geometry" />
        </mxCell>
        <mxCell id="24F_cnndnKzgg-yqGema-7" value="儿童" style="edgeLabel;html=1;align=center;verticalAlign=middle;resizable=0;points=[];" vertex="1" connectable="0" parent="24F_cnndnKzgg-yqGema-6">
          <mxGeometry x="-0.7391" relative="1" as="geometry">
            <mxPoint x="10" y="1" as="offset" />
          </mxGeometry>
        </mxCell>
        <mxCell id="24F_cnndnKzgg-yqGema-8" value="分支节点" style="rhombus;whiteSpace=wrap;html=1;" vertex="1" parent="1">
          <mxGeometry x="510" y="349" width="120" height="60" as="geometry" />
        </mxCell>
        <mxCell id="24F_cnndnKzgg-yqGema-16" style="edgeStyle=orthogonalEdgeStyle;rounded=0;orthogonalLoop=1;jettySize=auto;html=1;exitX=1;exitY=0.5;exitDx=0;exitDy=0;entryX=0;entryY=0.5;entryDx=0;entryDy=0;" edge="1" parent="1" source="24F_cnndnKzgg-yqGema-9" target="D78f5MYqbMIF7nLeF2cV-2">
          <mxGeometry relative="1" as="geometry" />
        </mxCell>
        <mxCell id="24F_cnndnKzgg-yqGema-9" value="消息节点6" style="rounded=0;whiteSpace=wrap;html=1;" vertex="1" parent="1">
          <mxGeometry x="830" y="420" width="120" height="60" as="geometry" />
        </mxCell>
        <mxCell id="24F_cnndnKzgg-yqGema-14" style="edgeStyle=orthogonalEdgeStyle;rounded=0;orthogonalLoop=1;jettySize=auto;html=1;exitX=1;exitY=0.5;exitDx=0;exitDy=0;entryX=0;entryY=0.5;entryDx=0;entryDy=0;" edge="1" parent="1" source="24F_cnndnKzgg-yqGema-10" target="D78f5MYqbMIF7nLeF2cV-2">
          <mxGeometry relative="1" as="geometry" />
        </mxCell>
        <mxCell id="24F_cnndnKzgg-yqGema-10" value="消息节点5" style="rounded=0;whiteSpace=wrap;html=1;" vertex="1" parent="1">
          <mxGeometry x="712" y="349" width="120" height="60" as="geometry" />
        </mxCell>
        <mxCell id="24F_cnndnKzgg-yqGema-11" value="&lt;font style=&quot;font-size: 8px;&quot;&gt;离开展区引导&lt;/font&gt;" style="text;html=1;align=left;verticalAlign=middle;whiteSpace=wrap;rounded=0;" vertex="1" parent="1">
          <mxGeometry x="830" y="420" width="70" height="11" as="geometry" />
        </mxCell>
        <mxCell id="24F_cnndnKzgg-yqGema-12" value="&lt;font style=&quot;font-size: 8px;&quot;&gt;离开展区引导&lt;/font&gt;" style="text;html=1;align=left;verticalAlign=middle;whiteSpace=wrap;rounded=0;" vertex="1" parent="1">
          <mxGeometry x="712" y="349" width="70" height="11" as="geometry" />
        </mxCell>
        <mxCell id="24F_cnndnKzgg-yqGema-23" style="edgeStyle=orthogonalEdgeStyle;rounded=0;orthogonalLoop=1;jettySize=auto;html=1;exitX=0.5;exitY=0;exitDx=0;exitDy=0;entryX=0;entryY=0.5;entryDx=0;entryDy=0;" edge="1" parent="1" source="24F_cnndnKzgg-yqGema-22" target="D78f5MYqbMIF7nLeF2cV-15">
          <mxGeometry relative="1" as="geometry" />
        </mxCell>
        <mxCell id="24F_cnndnKzgg-yqGema-24" value="播放展品讲解词时" style="edgeLabel;html=1;align=center;verticalAlign=middle;resizable=0;points=[];" vertex="1" connectable="0" parent="24F_cnndnKzgg-yqGema-23">
          <mxGeometry x="-0.4302" relative="1" as="geometry">
            <mxPoint as="offset" />
          </mxGeometry>
        </mxCell>
        <mxCell id="24F_cnndnKzgg-yqGema-22" value="分支节点" style="rhombus;whiteSpace=wrap;html=1;" vertex="1" parent="1">
          <mxGeometry x="303" y="520" width="120" height="60" as="geometry" />
        </mxCell>
        <mxCell id="24F_cnndnKzgg-yqGema-26" style="edgeStyle=orthogonalEdgeStyle;rounded=0;orthogonalLoop=1;jettySize=auto;html=1;exitX=1;exitY=0.5;exitDx=0;exitDy=0;" edge="1" parent="1" source="24F_cnndnKzgg-yqGema-25">
          <mxGeometry relative="1" as="geometry">
            <mxPoint x="990" y="510" as="targetPoint" />
          </mxGeometry>
        </mxCell>
        <mxCell id="24F_cnndnKzgg-yqGema-29" value="主听" style="edgeLabel;html=1;align=center;verticalAlign=middle;resizable=0;points=[];" vertex="1" connectable="0" parent="24F_cnndnKzgg-yqGema-26">
          <mxGeometry x="-0.7307" y="-1" relative="1" as="geometry">
            <mxPoint as="offset" />
          </mxGeometry>
        </mxCell>
        <mxCell id="24F_cnndnKzgg-yqGema-28" style="edgeStyle=orthogonalEdgeStyle;rounded=0;orthogonalLoop=1;jettySize=auto;html=1;exitX=0.5;exitY=1;exitDx=0;exitDy=0;entryX=0;entryY=0.5;entryDx=0;entryDy=0;" edge="1" parent="1" source="24F_cnndnKzgg-yqGema-25" target="24F_cnndnKzgg-yqGema-31">
          <mxGeometry relative="1" as="geometry">
            <mxPoint x="710" y="590" as="targetPoint" />
          </mxGeometry>
        </mxCell>
        <mxCell id="24F_cnndnKzgg-yqGema-30" value="伴听" style="edgeLabel;html=1;align=center;verticalAlign=middle;resizable=0;points=[];" vertex="1" connectable="0" parent="24F_cnndnKzgg-yqGema-28">
          <mxGeometry x="-0.8845" relative="1" as="geometry">
            <mxPoint as="offset" />
          </mxGeometry>
        </mxCell>
        <mxCell id="24F_cnndnKzgg-yqGema-25" value="分支节点" style="rhombus;whiteSpace=wrap;html=1;" vertex="1" parent="1">
          <mxGeometry x="510" y="480" width="120" height="60" as="geometry" />
        </mxCell>
        <mxCell id="24F_cnndnKzgg-yqGema-32" style="edgeStyle=orthogonalEdgeStyle;rounded=0;orthogonalLoop=1;jettySize=auto;html=1;exitX=1;exitY=0.5;exitDx=0;exitDy=0;entryX=0;entryY=0.5;entryDx=0;entryDy=0;" edge="1" parent="1" source="24F_cnndnKzgg-yqGema-31" target="24F_cnndnKzgg-yqGema-36">
          <mxGeometry relative="1" as="geometry">
            <mxPoint x="840" y="560" as="targetPoint" />
          </mxGeometry>
        </mxCell>
        <mxCell id="24F_cnndnKzgg-yqGema-34" value="儿童" style="edgeLabel;html=1;align=center;verticalAlign=middle;resizable=0;points=[];" vertex="1" connectable="0" parent="24F_cnndnKzgg-yqGema-32">
          <mxGeometry x="-0.6598" y="-1" relative="1" as="geometry">
            <mxPoint as="offset" />
          </mxGeometry>
        </mxCell>
        <mxCell id="24F_cnndnKzgg-yqGema-33" style="edgeStyle=orthogonalEdgeStyle;rounded=0;orthogonalLoop=1;jettySize=auto;html=1;exitX=0.5;exitY=1;exitDx=0;exitDy=0;entryX=0;entryY=0.5;entryDx=0;entryDy=0;" edge="1" parent="1" source="24F_cnndnKzgg-yqGema-31" target="24F_cnndnKzgg-yqGema-38">
          <mxGeometry relative="1" as="geometry">
            <mxPoint x="810" y="640" as="targetPoint" />
          </mxGeometry>
        </mxCell>
        <mxCell id="24F_cnndnKzgg-yqGema-35" value="商务/技术" style="edgeLabel;html=1;align=center;verticalAlign=middle;resizable=0;points=[];" vertex="1" connectable="0" parent="24F_cnndnKzgg-yqGema-33">
          <mxGeometry x="-0.814" y="-1" relative="1" as="geometry">
            <mxPoint as="offset" />
          </mxGeometry>
        </mxCell>
        <mxCell id="24F_cnndnKzgg-yqGema-31" value="分支节点" style="rhombus;whiteSpace=wrap;html=1;" vertex="1" parent="1">
          <mxGeometry x="650" y="530" width="120" height="60" as="geometry" />
        </mxCell>
        <mxCell id="24F_cnndnKzgg-yqGema-40" style="edgeStyle=orthogonalEdgeStyle;rounded=0;orthogonalLoop=1;jettySize=auto;html=1;exitX=1;exitY=0.5;exitDx=0;exitDy=0;entryX=0.5;entryY=1;entryDx=0;entryDy=0;" edge="1" parent="1" source="24F_cnndnKzgg-yqGema-36" target="D78f5MYqbMIF7nLeF2cV-2">
          <mxGeometry relative="1" as="geometry" />
        </mxCell>
        <mxCell id="24F_cnndnKzgg-yqGema-36" value="消息节点" style="rounded=0;whiteSpace=wrap;html=1;" vertex="1" parent="1">
          <mxGeometry x="890" y="530" width="120" height="60" as="geometry" />
        </mxCell>
        <mxCell id="24F_cnndnKzgg-yqGema-37" value="&lt;span style=&quot;font-size: 8px;&quot;&gt;主听离开提示&lt;/span&gt;" style="text;html=1;align=left;verticalAlign=middle;whiteSpace=wrap;rounded=0;" vertex="1" parent="1">
          <mxGeometry x="890" y="530" width="70" height="11" as="geometry" />
        </mxCell>
        <mxCell id="24F_cnndnKzgg-yqGema-41" style="edgeStyle=orthogonalEdgeStyle;rounded=0;orthogonalLoop=1;jettySize=auto;html=1;exitX=1;exitY=0.5;exitDx=0;exitDy=0;" edge="1" parent="1" source="24F_cnndnKzgg-yqGema-38">
          <mxGeometry relative="1" as="geometry">
            <mxPoint x="1100" y="410" as="targetPoint" />
          </mxGeometry>
        </mxCell>
        <mxCell id="24F_cnndnKzgg-yqGema-38" value="消息节点" style="rounded=0;whiteSpace=wrap;html=1;" vertex="1" parent="1">
          <mxGeometry x="760" y="591" width="120" height="60" as="geometry" />
        </mxCell>
        <mxCell id="24F_cnndnKzgg-yqGema-39" value="&lt;font style=&quot;font-size: 8px;&quot;&gt;主听离开提示&lt;/font&gt;" style="text;html=1;align=left;verticalAlign=middle;whiteSpace=wrap;rounded=0;" vertex="1" parent="1">
          <mxGeometry x="760" y="591" width="70" height="11" as="geometry" />
        </mxCell>
      </root>
    </mxGraphModel>
  </diagram>
</mxfile>
